<svg xmlns="http://www.w3.org/2000/svg" width="1280" height="720" viewBox="0 0 1280 720" role="img" aria-label="Submissions toolbar placeholder screenshot">
  <rect width="1280" height="720" fill="#f8fafc"/>
  <rect x="60" y="70" width="1160" height="220" rx="14" fill="#ffffff" stroke="#d4d4d8"/>
  <rect x="90" y="106" width="130" height="34" rx="8" fill="#f1f5f9"/>
  <rect x="230" y="106" width="130" height="34" rx="8" fill="#f1f5f9"/>
  <rect x="370" y="106" width="130" height="34" rx="8" fill="#f1f5f9"/>
  <rect x="510" y="106" width="280" height="34" rx="8" fill="#ffffff" stroke="#cbd5e1"/>
  <rect x="800" y="106" width="160" height="34" rx="8" fill="#ffffff" stroke="#cbd5e1"/>
  <rect x="970" y="106" width="160" height="34" rx="8" fill="#ffffff" stroke="#cbd5e1"/>
  <rect x="90" y="162" width="190" height="40" rx="10" fill="#059669"/>
  <rect x="290" y="162" width="190" height="40" rx="10" fill="#0284c7"/>
  <rect x="490" y="162" width="190" height="40" rx="10" fill="#be123c"/>
  <rect x="690" y="162" width="190" height="40" rx="10" fill="#7f1d1d"/>
  <rect x="890" y="162" width="150" height="40" rx="10" fill="#d97706"/>
  <rect x="1050" y="162" width="130" height="40" rx="10" fill="#7c3aed"/>
  <text x="90" y="350" font-family="Arial, sans-serif" font-size="28" fill="#0f172a" font-weight="700">Submissions toolbar screenshot placeholder</text>
  <text x="90" y="388" font-family="Arial, sans-serif" font-size="20" fill="#334155">Capture filters + batch actions area and replace this file.</text>
</svg>

